<svg width="116" height="18" fill="none" xmlns="http://www.w3.org/2000/svg"><path d="M34.002 0l2.126 6.494h6.877l-5.564 4.012L39.566 17l-5.564-4.013L28.438 17l2.126-6.494L25 6.494h6.878L34.002 0zM9.002 1l2.126 6.494h6.877l-5.564 4.012L14.566 18l-5.564-4.013L3.438 18l2.126-6.494L0 7.494h6.878L9.002 1zM58.002 0l2.126 6.494h6.877l-5.564 4.012L63.566 17l-5.564-4.013L52.438 17l2.126-6.494L49 6.494h6.878L58.002 0zM83.002 0l2.126 6.494h6.877l-5.564 4.012L88.566 17l-5.564-4.013L77.438 17l2.126-6.494L74 6.494h6.878L83.002 0zM106.002 0l2.126 6.494h6.877l-5.564 4.012L111.566 17l-5.564-4.013L100.438 17l2.126-6.494L97 6.494h6.878L106.002 0z" fill="#81B3D2"/></svg>