<svg width="21" height="23" fill="none" xmlns="http://www.w3.org/2000/svg"><path fill-rule="evenodd" clip-rule="evenodd" d="M16.406 3.025h2.845c.966 0 1.749.822 1.749 1.837v16.302C21 22.179 20.217 23 19.251 23H1.75C.784 23 0 22.179 0 21.164V4.862c0-1.015.784-1.837 1.75-1.837h2.843V1.648c0-.381.294-.689.657-.689.362 0 .656.308.656.689v1.377h3.938V1.648c0-.381.294-.689.657-.689.361 0 .655.308.655.689v1.377h3.938V1.648c0-.381.293-.689.656-.689.362 0 .656.308.656.689v1.377zm3.159 18.459a.448.448 0 00.123-.32h.001V4.862a.449.449 0 00-.437-.459h-2.845v1.378c0 .381-.294.689-.656.689-.363 0-.656-.308-.656-.689V4.403h-3.938v1.378c0 .381-.294.689-.655.689-.363 0-.657-.308-.657-.689V4.403H5.907v1.378c0 .381-.294.689-.656.689-.363 0-.657-.308-.657-.689V4.403H1.75a.45.45 0 00-.438.459v16.302a.45.45 0 00.438.459h17.501a.448.448 0 00.314-.139z" fill="#A9A9A9"/><path fill-rule="evenodd" clip-rule="evenodd" d="M4.594 9.225h2.625v2.066H4.594V9.225zm0 3.443h2.625v2.067H4.594v-2.067zm2.625 3.444H4.594v2.066h2.625v-2.066zm1.969 0h2.625v2.066H9.188v-2.066zm2.625-3.444H9.188v2.067h2.625v-2.067zM9.188 9.225h2.625v2.066H9.188V9.225zm7.218 6.887h-2.625v2.066h2.625v-2.066zm-2.625-3.444h2.625v2.067h-2.625v-2.067zm2.625-3.443h-2.625v2.066h2.625V9.225z" fill="#A9A9A9"/></svg>