<svg width="75" height="70" fill="none" xmlns="http://www.w3.org/2000/svg"><path fill-rule="evenodd" clip-rule="evenodd" d="M8.978 31.544h60.877c.041-.619.069-1.241.069-1.87 0-.393-.016-.78-.032-1.17v-.003C69.227 12.657 55.186 0 37.952 0 20.719 0 6.677 12.657 6.013 28.501c-.017.39-.032.78-.032 1.173 0 .629.028 1.251.07 1.87h2.927zm12.979 10.921l-5.323-4.059-5.326 4.059-6.188-4.714 1.721-2.457 4.467 3.401 5.327-4.057 5.323 4.057 5.325-4.057 5.328 4.057 5.328-4.057 5.328 4.057 5.329-4.057 5.327 4.057 5.33-4.056 5.336 4.057 4.474-3.403 1.72 2.459-6.194 4.712-5.336-4.059-5.33 4.06-5.327-4.059-5.329 4.059-5.328-4.059-5.328 4.059-5.328-4.059-5.326 4.059zM5.051 46.71h65.803c2.274 0 4.134 1.94 4.134 4.313v3.504c0 2.372-1.861 4.313-4.135 4.313h-.93v1.053c0 5.536-4.342 10.065-9.648 10.065H15.629c-5.307 0-9.648-4.529-9.648-10.065V58.84h-.93c-2.274 0-4.135-1.941-4.135-4.313v-3.504c0-2.373 1.861-4.313 4.135-4.313zm55.225 20.205c3.711 0 6.73-3.15 6.73-7.021h-.001v-1.053H8.898v1.053c0 3.871 3.02 7.021 6.731 7.021h44.647zm11.795-12.388c0 .688-.558 1.271-1.218 1.271H5.051c-.66 0-1.217-.582-1.217-1.271v-3.504c0-.688.558-1.271 1.217-1.271h65.802c.66 0 1.218.582 1.218 1.271v3.504zm-5.098-26.026c-.671-14.142-13.43-25.458-29.021-25.458-15.591 0-28.348 11.316-29.021 25.458h58.042z" fill="#81B3D2"/><path d="M37.952 17.29c1.074 0 1.945-.909 1.945-2.03 0-1.121-.87-2.03-1.945-2.03-1.074 0-1.945.909-1.945 2.03 0 1.121.87 2.03 1.945 2.03zM30.172 12.26c1.075 0 1.946-.909 1.946-2.03 0-1.121-.871-2.03-1.946-2.03s-1.946.909-1.946 2.03c0 1.121.871 2.03 1.946 2.03zM45.732 12.26c1.075 0 1.946-.909 1.946-2.03 0-1.121-.871-2.03-1.946-2.03s-1.946.909-1.946 2.03c0 1.121.871 2.03 1.946 2.03z" fill="#81B3D2"/></svg>