<svg width="64" height="77" fill="none" xmlns="http://www.w3.org/2000/svg"><path fill-rule="evenodd" clip-rule="evenodd" d="M61.097 23.501H36.312C50.125 16.602 51.229 12.25 50.72 9.816c-1.162-3.963-5.692-7.023-10.002-5.407-5.569 2.089-7.137 10.388-8.644 16.387-1.924-6.07-3.784-13.814-8.136-17.737-1.261-1.138-3.095-2.264-5.763-2.028-4.026.356-9.802 5.382-7.458 10.981 2.251 5.378 9.687 8.777 14.578 11.489H2.879A2.882 2.882 0 000 26.37v11.322a2.882 2.882 0 002.879 2.869h.274V77h57.841V40.561h.103a2.882 2.882 0 002.88-2.869V26.37a2.882 2.882 0 00-2.88-2.869zM42.413 6.944c2.103-.31 4.982 1.299 5.255 3.209.393 2.756-3.4 5.255-5.086 6.421-2.523 1.744-4.928 2.643-7.287 4.055.884-3.69 2.549-13.011 7.118-13.685zm-22.882 9.968c-2.225-1.485-6.544-4.431-6.44-7.771.112-3.595 5.743-6.57 8.814-3.886 3.856 3.371 5.713 11.105 7.119 16.557-3.249-1.539-6.328-2.788-9.493-4.9zm5.972 57.114H6.136V40.561h19.368v33.465h-.001zm0-36.502H3.046V26.538h22.457v10.986zm10.157 0v36.503h-7.174V26.538h7.174v10.986zm22.351 36.502H38.644V40.561h19.367v33.465zm2.92-36.502H38.644V26.538h22.287v10.986z" fill="#81B3D2"/></svg>