<svg width="75" height="72" fill="none" xmlns="http://www.w3.org/2000/svg"><path fill-rule="evenodd" clip-rule="evenodd" d="M45.656 65.033h-16V41.21h16v23.823zm-2.938-20.899H32.593V62.11h10.125V44.134z" fill="#81B3D2"/><path fill-rule="evenodd" clip-rule="evenodd" d="M72.771 39.253l2.076-2.068-9.908-9.865V0H51.127v13.567L37.5 0 .152 37.185l2.077 2.068 7.832-7.795v37.618H6.124V72h63.875v-2.924H64.94V31.458l7.831 7.795zM62.002 69.076H12.999V28.534L37.5 4.149l24.502 24.385v40.542zm-7.938-52.584l7.938 7.902V2.924h-7.938v13.568z" fill="#81B3D2"/><path fill-rule="evenodd" clip-rule="evenodd" d="M37.656 34.793c-4.28 0-7.75-3.452-7.75-7.713 0-4.26 3.469-7.713 7.75-7.713 4.279 0 7.75 3.454 7.75 7.713 0 4.26-3.471 7.713-7.75 7.713zm4.969-7.713c0-2.731-2.225-4.945-4.969-4.945-2.745 0-4.97 2.214-4.97 4.945 0 2.732 2.224 4.948 4.97 4.948 2.744 0 4.969-2.216 4.969-4.948zM17.061 41.21h3v3.919h-3v-3.92zm8.938 0h-3v3.919h3v-3.92zm-8.938 5.972h3V51.1h-3v-3.92zm8.938 0h-3V51.1h3v-3.92zm22.999-5.972h3v3.919h-3v-3.92zm8.938 0h-3v3.919h3v-3.92zm-8.938 5.972h3V51.1h-3v-3.92zm8.938 0h-3V51.1h3v-3.92z" fill="#81B3D2"/></svg>