<svg width="138" height="70" fill="none" xmlns="http://www.w3.org/2000/svg"><path d="M138 0H0l59.51 65.68c5.22 5.761 13.76 5.761 18.98 0L138 0z" fill="#81B3D3"/><path d="M36.687.457l32.148 37.879 32.02-37.65L36.687.457z" fill="#23A9E1"/><path fill-rule="evenodd" clip-rule="evenodd" d="M78.42 14.719H61.1c-.28-.127-.662-.27-1.088-.43-2.198-.822-5.6-2.096-2.665-4.037 1.47-.933 2.525-.784 3.522-.642 1.09.155 2.11.3 3.526-.988 2.58-2.34 6.275 1.287 7.54 2.53.261.256.419.41.442.391 1.25-1.04 3.254.761 4.734 2.092.52.467.974.876 1.309 1.084zm9.41-3.478l-9.86.054c3.896-4.5 5.647-4.018 9.86-.054z" fill="#fff"/><path fill-rule="evenodd" clip-rule="evenodd" d="M36 .001h33.055L102 0v15.04L69.056 54.245l-.22.275L36 14.583V.001zm4.011 1.152V3.06l-1.604-1.906 1.604-.001zm57.611.001v2.434l2.08-2.434h-2.08zM48.467 13.081l-.09-.083.82.973-.001.001 19.638 23.33-19.638-23.33c2.655-4.543 6.457-5.223 10.547-.308.654.818 1.05 1.56 1.369 2.157.45.844.744 1.393 1.386 1.439 1.139.081 1.699-.674 2.256-1.426.442-.596.882-1.19 1.609-1.361 1.421-.334 2.076.025 2.719.377.204.112.406.223.632.311.282.11.546.18.79.245.627.166 1.125.297 1.473.995.116.232.213.464.308.69.42 1.006.795 1.904 2.594 2.203 2.548.424 4.703-.528 6.944-1.52 1.607-.71 3.26-1.44 5.133-1.697l2.515-2.945c-.105-.11-2.467-2.54-6.132-4.95-3.429-2.255-8.728-4.949-14.506-4.977-5.791-.032-11.016 2.653-14.383 4.912-3.543 2.377-5.816 4.786-5.974 4.955l-.009.009zM97.114 1.153h-3.227V7.96l3.227-3.777v-3.03zM89.832 12.61V1.154h3.546v7.404l-3.5 4.098a.998.998 0 00-.046-.046zm-.508-.495V2.221l-3.557 6.908a41.04 41.04 0 013.557 2.986zM85.159 1.863v6.819c-.463-.334-.95-.673-1.465-1.012-.664-.438-1.4-.892-2.194-1.34l3.659-4.467zM80.847 5.97V1.73l-3.12 2.766c1.065.436 2.107.928 3.12 1.474zm.508-4.816h3.727l-3.727 4.55v-4.55zm7.945 0h-3.633l-.001 7.06 3.634-7.06zm-12.43 0h3.86L77.2 4.282c-.065-.025-.132-.05-.198-.073a15.53 15.53 0 01-.133-.049V1.154h.001zm-.509 2.82V1.571l-3.1 1.516c1.05.231 2.086.527 3.1.887zm-4.203-2.361v1.26a21.46 21.46 0 00-2.179-.252l2.179-1.008zM67.64 2.616l-2.248-1.042v1.295c.736-.123 1.486-.21 2.248-.253zm-6.368-1.045l3.065 1.498c-1.06.229-2.083.528-3.066.875l.001-2.373zm.306-.417l3.304 1.617.001-1.617h-3.305zm6.87 1.275l-2.754-1.275h2.754v1.275zm3.49-1.275h-2.881v1.334l2.881-1.334zm.878 0h3.24l-3.24 1.584V1.154zm-15.921.001l3.51 3.11.359-.135V1.155h-3.869zm-.108.583l3.093 2.741c-1.057.44-2.09.937-3.093 1.489v-4.23zm-.672 4.608l-3.64-4.48v6.89a35.89 35.89 0 013.64-2.41zM48.31 2.224l3.586 6.974a37.772 37.772 0 00-3.586 3.151V2.224zm.022-1.07l3.634 7.07v-7.07h-3.634zm7.946 4.585l-3.726-4.585h3.726v4.585zM40.52 3.664l3.227 3.833V1.154H40.52v2.51zm3.735-2.51H47.8v11.16l-3.546-4.212.001-6.948z" fill="#491213"/><path d="M66.227 46.026l2.61-4.22 2.598 4.22-2.598 4.23-2.61-4.23z" fill="#23A9E1"/><path fill-rule="evenodd" clip-rule="evenodd" d="M52.88 11.718c-1.783.554-2.881 3.012-.257 3.121h.001c-.108-1.668.366-2.374.512-.348.433-.02.882-.032 1.339-.044 1.642-.044 3.38-.09 4.795-.524-1.14-1.091-4.695-2.733-6.39-2.205zm5.913 11.267c-5.596-.046-1.813-8.648.091-8.128 2.19.696 1.944 8.194-.091 8.128zm2.54-2.855c-.11 1.972.878 1.669 1.423.045v-.001c.003.359-.036.72-.075 1.073-.102.936-.197 1.808.534 2.397 1.324 1.069 3.865-.397 4.696-1.492-1.597-.62.348-4.387 1.546-4.961-1.232 2.581-2.652 6.426.568 6.426-1.632 0 1.302-6.746 1.318-6.692-.186-.617-.649-.684-1.2-.763-.41-.059-.868-.125-1.3-.427-1.582-1.107-2.409-.154-3.212.772-.35.404-.696.802-1.098 1.023-.48.263-.95.397-1.377.518-.985.28-1.735.494-1.823 2.082zm12.885 10.426c-3.433-2.02-2.564-3.523.23-4.925.36-.18.832-.478 1.358-.81 1.61-1.014 3.736-2.353 4.775-1.689l-6.363 7.424zm-3.544 2.448c-1.707-.105-3.494-.215-5.052.124 1.207.302 4.151 1.165 1.41 1.894.983 1.407 2.578 1.317 3.624.082a3.504 3.504 0 01-.625-.411 4.584 4.584 0 00-.382-.275c1.085-.196 2.1-.822 2.235-1.345-.396-.018-.8-.043-1.21-.069zm-.301-1.505c.869-.84 1.813-.796 2.746 0h-.001c-.474 1.382-9.059.894-10.124-1.72.524.08 1.207.087 1.95.096 2.058.024 4.573.053 5.429 1.624zm-4.028-2.151c-.45-.14-1.209-.23-1.978-.32-1.901-.224-3.868-.456-1.41-1.474 1.065-.441 6.593.063 3.388 1.794zm1.912-3.03c-.477-1.077.365-2.36 1.74-1.428 1.199.813-.552 2.017-1.74 1.428zm-2.836.091c-2.265.679-5.273-.784-1.63-1.52 2.261-.456 4.666.506 1.63 1.52z" fill="#DC6243"/><path d="M71.774 25.832c-2.908-2.987 4.342-2.712 5.51-3.763.85.284 6.99-5.377 8.485-5.025-1.074 1.26-3.388 5.282-5.047 5.282-1.275 0-2.565-.19-3.552.718-1.444 1.33-3.837 2.006-5.396 2.788z" fill="#F49774"/><path d="M72.727 22.18c-1.592.856-3.098-2.536-.349-2.206 1.826.22 3.676-.154 5.42.147-1.251 1.487-3.056 2.306-5.071 2.059z" fill="#F4B1A4"/><path fill-rule="evenodd" clip-rule="evenodd" d="M39.265 14.483c.361 1.219 1.584 1.666 2.731 1.326.036.04.059.103.08.16l.03.077c-.1.038-.284.118-.504.213-.612.264-1.504.648-1.629.602-.217-.433-.558-.752-.902-1.074-.239-.224-.48-.45-.679-.714-.566-.748-.897-1.651-.808-2.597.142-1.745 1.898-3.669 3.762-3.405.92.133 1.688.787 2.26 1.483.163.19.304.388.443.584.297.416.585.821 1.05 1.1-.558.712-1.116 1.422-1.676 2.133-.33-.146-.23-.374-.12-.623.03-.07.062-.141.085-.213.163-.517.285-1.105.061-1.625-.51-1.174-1.905-1.214-2.84-.544-.946.678-1.697 1.926-1.344 3.117zm8.425 1.921c.117-.025.206.017.284.054.115.054.21.099.338-.09l-1.59-1.894c-.241-.287-.546-.595-.459.012.058.409-3.969 3.677-4.215 3.778-.135.056-.245.012-.346-.028-.131-.052-.245-.097-.374.091l.602.716.002.002.001.002.001.001.818.972c.051.061.102.124.152.187.107.133.214.267.333.386.189.189.153-.268.145-.366v-.014c-.053-.296.259-.553.478-.733l.077-.064c1.004-.884 3.505-2.979 3.753-3.012zm3.423 4.531c.333.401.578.834.523 1.374-.013.128-.088.285-.163.445-.146.309-.297.626-.012.753l1.455-1.84c-.39-.098-3.482-3.796-3.532-4.201l-2.051 1.126c.07.283.413.194.743.108.17-.044.337-.087.46-.078.538.038.926.363 1.268.747l-.356.3-.004.003h-.001c-1.258 1.058-3.517 2.959-3.777 3.002-.048.008-.14-.032-.244-.076-.21-.09-.465-.198-.47.039-.003.125.299.424.5.623.072.071.131.13.159.163l1.447 1.722c.22-.1.177-.233.127-.388-.04-.127-.087-.27.006-.419.12-.193 2.055-1.826 3.218-2.807v-.001c.302-.254.552-.465.704-.595zm13.849 15.58a23.814 23.814 0 00-.423-.538l-.213-.253c-.007-.01-.185.145-.16.124-.053.045-.036.132-.017.23.022.109.046.232-.017.33-.515.806-3.738 3.236-3.905 3.352-.174.12-.356.1-.522.083-.177-.02-.336-.037-.445.123.14.165.355.436.595.735.564.706 1.256 1.572 1.365 1.59.217.035.178-.237.148-.445a.617.617 0 01-.012-.204c.075-.226 1.52-1.43 2.186-1.985l.118-.099c.186-.156.38.154.513.368l.064.1c.212.315.307.65.193 1.019a1.187 1.187 0 01-.124.237c-.122.198-.25.409-.038.525.17-.2.474-.553.778-.907l.006-.008.003-.004.005-.005.904-1.056c.12-.14-.136-.086-.254-.061-.042.009-.066.014-.05.005-.24.124-.466.153-.69-.018-.063-.047-.707-.702-.643-.757.066-.055.135-.119.206-.185.236-.216.501-.46.778-.529.56-.138 1.027.984 1.11 1.382.078.375.067.77-.05 1.136-.02.063-.05.123-.078.18-.085.169-.156.31.09.424l1.383-1.896a.464.464 0 01-.258-.063c-.584-.39-1.85-2.029-2.546-2.93zm-8.658-5.198a3.35 3.35 0 011.977-.793c1.158-.066 2.332.464 3.09 1.474 1.112 1.484.93 3.561-.5 4.766-1.685 1.201-3.767 1.008-5.059-.694-1.124-1.478-.938-3.55.492-4.753zm3.167.593c.949-.108 1.503.799 1.099 1.768-.42.98-1.43 1.989-2.424 2.38-1.18.465-2.011-.537-1.531-1.657.422-.984 1.43-1.983 2.426-2.38.15-.059.294-.095.43-.11v-.001zm-2.497-4.54a1.12 1.12 0 00-.286-.09v-.001c-.696-.083-1.479.062-2.218.2-.282.052-.559.103-.821.14-.647.091-2.172 1.576-2.27 1.856-.01.039.01.127.035.227.055.227.125.52-.109.479-.08-.015-.27-.273-.396-.445-.044-.06-.08-.11-.102-.135l-1.617-1.92c.143-.203.264-.134.404-.054.11.063.233.133.388.079.266-.093 1.178-.87 1.61-1.238l.002-.003.143-.121c.554-.466 1.04-2.173 1.2-2.731.025-.09.042-.149.05-.17.061-.17.082-1.145.058-1.125.21-.174.355.04.501.255.044.066.089.13.135.186l1.78 2.112c-.132.19-.254.134-.389.073-.13-.059-.27-.123-.443.019-.159.13-.54 1.23-.713 1.727l-.039.113.143-.025c.532-.09 1.776-.302 1.919-.553.067-.118.028-.22-.007-.31-.047-.12-.086-.221.133-.32l1.447 1.712c-.152.225-.337.148-.538.064zm23.953 6.679c.124.421.194.865.14 1.305-.07.566-.636 1.898-1.411 1.519-.534-.262-1.022-.71-1.488-1.14-.197-.18-.39-.358-.582-.517.52-.608.978-1.135 1.853-.84.24.08.446-.024.194-.17l-.29-.177c-.581-.358-1.75-1.079-1.827-.992-.08.092-.016.217.058.363.09.175.194.38.085.594-.115.225-.29.426-.46.621l-.145.169c-.068-.058-.143-.116-.22-.175-.447-.347-.946-.733-.465-1.289.352-.428.811-.76 1.361-.87.13-.026.316-.003.507.021.354.044.726.091.795-.167a666.425 666.425 0 00-2.115-1.016c.092.418-1.365 2.059-2.206 3.006-.206.232-.375.422-.475.542-.02.023-.058.061-.104.107-.131.13-.324.32-.327.41-.005.252.33.098.41.061l.017-.007c.315-.116 4.424 3.317 4.526 3.552.03.086 0 .174-.027.254-.031.089-.058.167.007.221l.003.003c.021.02.147.135.162.117.042-.05.153-.194.31-.397.783-1.01 2.719-3.51 3.179-3.639-.517-.788-1.03-1.578-1.537-2.372-.287.126-.151.408-.03.663.041.086.08.168.102.24zm-7.716 5.192c.721-.446 2.562-1.585 3.716-.84 1.132.942.885 2.48.132 3.58-.361.525-.817.964-1.294 1.383l-.031.026c-.35.294-.609.51-.675.989l-2.26-1.647c.113-.295.338-.169.56-.044.083.046.164.092.239.116.391.129.816.165 1.216.059.684-.182 1.377-.823 1.56-1.519.228-.865-.621-1.127-1.267-.824-.311.146-.608.341-.9.534-.117.077-.233.153-.349.226-.653.407-1.421.715-2.158.331-.648-.336-1.089-.99-1.089-1.726 0-.797.453-1.495.987-2.05a5.81 5.81 0 01.429-.385c.403-.34.836-.705.919-1.2.555.376 1.11.751 1.667 1.126.092.063.076.084.025.15-.015.02-.034.043-.053.074-.047.074-.37.038-.634.008a2.516 2.516 0 00-.312-.025c-.596.036-1.196.297-1.5.837-.35.622.137 1.294.812.975a3.78 3.78 0 00.26-.154zm21.333-28.905a.223.223 0 00-.088.072l-.79.95-.814.982a2.191 2.191 0 01-.083.094c-.131.143-.212.23.058.373.543-.272 3.518 4.768 3.252 5.492-.47.244-4.49-3.283-4.598-3.516a.524.524 0 01.013-.17c.031-.197.076-.478-.149-.443-.11.017-.323.329-.464.536-.05.072-.09.132-.114.161l-.577.695c.13.19.227.146.345.09.078-.037.165-.078.278-.062.228.046 1.044.733 1.377 1.014l.079.066a78.78 78.78 0 00-.666.03c-.529.024-1.13.052-1.239.044-.336.042-.377-.106-.424-.272-.034-.124-.072-.259-.236-.333l-1.478 1.795-.86 1.043-.01.012c-.008.01-.012.014-.012.017 0 .004.005.007.015.014a.44.44 0 01.038.029l.071.06c.04.035.056.05.073.05.011-.001.023-.008.042-.02a.842.842 0 01.184-.086c.328-.115 4.256 3.2 4.398 3.369.112.133.1.277.09.408-.011.157-.022.298.178.385l1.168-1.418a.624.624 0 01.033-.037c.035-.036.041-.043-.02-.093-.153-.126-.231-.07-.328-.002-.079.055-.17.119-.322.102-.3-.05-2.218-1.65-3.36-2.602v-.001l-.005-.004h-.002l-.006-.006-.455-.379 5.322-.197c.195-.007.74.581.695.79-.016.075-.05.138-.08.193-.07.126-.118.215.114.322.123-.148.25-.296.376-.445.192-.226.385-.451.569-.68l.148-.184a.477.477 0 00.135-.172l.11-.137.095-.108.003-.003c.344-.39 1.06-1.201.964-1.285-.14-.121-.246-.064-.36-.002-.131.07-.272.147-.484-.033-.206-.147-.693-.986-.886-1.319l-.049-.083c-.153-.26.28-.52.54-.675l.085-.052c.504-.313 2.107-.767 2.26.227.01.072-.02.148-.05.22-.039.094-.074.18-.005.237l.023.023c.043.044.118.123.153.082l2.142-2.576c-.02-.017-.041-.038-.063-.06a.486.486 0 00-.147-.116c-.474.473-5.466-1.52-5.83-1.795-.076-.03-.123-.175-.169-.316-.053-.167-.106-.329-.203-.295zm2.062 3.513a422.87 422.87 0 00-2.287-.96l1.016 1.748c.189-.187.397-.353.621-.495h.002c.201-.127.418-.229.648-.293zm-8.875 6.793c-1.107-.076-2.23.41-3.023 1.317-1.235 1.5-1.112 3.678.393 4.945 1.518 1.25 3.68.932 4.916-.55 1.232-1.496 1.147-3.68-.385-4.934a3.302 3.302 0 00-1.9-.778h-.001zm.293 2.262c-.432-.289-1.12-.665-1.742-.703-.373-.023-.723.077-.98.391-.815.996.462 2.126 1.207 2.664.744.537 2.124 1.314 2.924.474a.153.153 0 00.018-.018c.133-.167.098-.128.05-.07.737-1.051-.697-2.217-1.477-2.738zm-4.869 3.577c-1.214-.067-2.403.496-3.299 1.576-.524.629-1.046 1.26-1.568 1.89l-.354.426c.124.18.258.142.409.1.127-.036.266-.075.418.013.283.163 4.053 3.312 4.115 3.485.046.13.02.215-.002.286-.028.092-.05.163.096.282.111.093 2.944-3.405 3.203-4.02.448-1.139.091-2.387-.82-3.175.073.06.177.145-.042-.037-.69-.518-1.427-.787-2.156-.827v.001zm-.787 1.617a1.228 1.228 0 00-.266-.037v-.001c-.661-.025-1.582.358-2.057.879-.159.175 3.822 3.399 4.02 3.209.183-.175.257-.239.297-.274.049-.042.05-.043.135-.148 1.255-1.513-.707-3.265-2.129-3.628z" fill="#fff"/></svg>