<svg width="458" height="352" fill="none" xmlns="http://www.w3.org/2000/svg"><path fill-rule="evenodd" clip-rule="evenodd" d="M181.774 56.09l-2.845 4.877H176.2l-.87 1.434h2.757l-6.069 10.383c-1.277 2.208-.376 4.246 2.062 4.246 1.223 0 2.538-.637 3.853-1.621l-.778 1.334h3.046l4.588-7.887c4.644-5.767 6.706-5.02 5.399-2.81l-3.92 6.74c-1.278 2.21-.377 4.248 2.061 4.248 1.796 0 3.788-1.37 5.693-3.205.146 1.857 1.667 3.205 4.09 3.205 3.423 0 6.82-2.64 9.316-5.508-.197-.403-.719-.861-1.126-1.033l-.203.226c-2.178 2.497-4.964 4.475-7.082 4.475-1.86 0-2.964-1.146-1.57-3.555l.29-.52c1.946.805 5.604.431 7.868-3.44l.437-.747c1.625-2.753.058-4.818-2.41-4.818-2.439 0-4.383 1.263-5.66 3.441l-2.93 4.965-.176.2c-2.177 2.494-4.295 4.472-5.631 4.472-.666 0-1.046-.46-.35-1.635l4.355-7.543c1.306-2.265.06-3.9-1.624-3.9-1.307 0-2.702.717-4.21 2.265l4.818-8.289h-3.019l-8.423 14.438-.17.19c-2.176 2.496-4.297 4.474-5.633 4.474-.667 0-1.044-.46-.346-1.635l6.472-11.158h2.467l.872-1.433h-2.496l2.845-4.875-3.019-.001zm-32.309 4.879l2.845-4.875h3.019l-2.846 4.873h2.499l-.872 1.436h-2.465l-6.476 11.158c-.697 1.175-.319 1.635.348 1.635 1.335 0 3.457-1.979 5.633-4.475l.156-.176 1.237-2.09 1.48-2.553c1.742-2.984 3.54-3.9 5.862-3.9 2.846 0 4.529 2.953 2.701 6.08l-2.845 4.846c1.511-.029 3.194-.744 4.558-2.207l.205-.228c.406.172.928.629 1.128 1.033-1.54 1.806-4.384 2.896-6.184 2.896h-.666c-3.269 4.084-8.616 3.341-8.61-.461-1.866 1.769-3.803 3.073-5.557 3.073-2.438 0-3.339-2.038-2.061-4.247l6.068-10.383h-2.757l.87-1.435h2.73zm10.798 5.998c1.028-1.742.562-2.947-.422-3.037-.765-.07-1.843.536-2.77 2.092l-1.451 2.437-2.294 3.928c-1.8 3.097 1.657 3.556 3.079 1.146l.03-.056a1.94 1.94 0 01-.291-1.004c0-.975.783-1.779 1.77-1.779h.145l2.204-3.727zm43.312-.031c1.012-1.744.48-2.661-.489-2.604v.001c-.752.044-1.769.678-2.532 1.97l-1.946 3.357c1.133.402 3.08.46 4.53-1.978l.437-.746zm43.829-8.067c-1.714 1.52-1.858 3.214-.783 4.59l.262.344-.062.087c-1.329 1.856-3.103 4.335-5.048 6.597l.002.003-.203.229c-1.365 1.461-3.046 2.18-4.558 2.209l2.843-4.848c1.83-3.126.147-6.08-2.7-6.08-2.32 0-4.12.918-5.86 3.9l-1.484 2.553-1.238 2.092-.154.176c-2.497 2.84-4.643 4.671-7.025 5.676l6.763-11.414h-1.77c0-1.234-1.276-2.87-3.164-2.87-1.624 0-3.89 1.265-5.168 3.444l-4.238 7.227c-1.278 2.208-.378 4.246 2.06 4.246.843 0 1.86-.374 2.877-1.004l-.843 1.404c-4.064 1.233-6.62 2.868-6.62 5.106 0 2.869 4.442 3.471 6.62-.2l2.292-3.93c2.416-.743 4.783-2.147 7.24-4.464-.021 3.817 5.337 4.567 8.61.476h.668c1.8 0 4.645-1.089 6.184-2.896 1.449-1.664 2.58-3.155 4.99-6.395l.405.489c.377.487.525 1.09.175 1.691l-3.193 5.479c-1.28 2.21-.379 4.246 2.061 4.246 1.53 0 3.204-.995 4.842-2.422-.05 1.386.887 2.422 2.619 2.422.84 0 1.857-.373 2.874-1.004l-.842 1.402c-4.065 1.233-6.616 2.868-6.616 5.106 0 2.869 4.44 3.47 6.616-.2l2.292-3.93c2.46-.758 4.87-2.206 7.377-4.599.136 1.868 1.658 3.225 4.09 3.225 2.458 0 4.899-1.363 7.004-3.19-.117 3.905 5.31 4.703 8.612.578h.668c.945 0 2.175-.308 3.357-.853-.813 2.073-.066 3.465 1.661 3.465 1.656 0 3.513-1.492 4.964-2.868-.29 1.605.667 2.868 2.584 2.868 2.496 0 5.37-2.637 7.868-5.506l-.002-.002c1.355-1.544 2.583-3.176 3.57-4.486.26-.346.504-.669.728-.962-.4 1.04-.594 2.359-.784 3.652-.375 2.555-.736 5.008-2.642 5.008-1.016 0-1.42-1.09-1.42-1.09l-1.89.975s.551 2.412 3.31 2.412c.268 0 .512-.026.774-.053l.066-.007c.015 0 .03-.007.046-.013a.114.114 0 01.045-.014c3.076-.4 6.124-2.81 8.388-5.42-.173-.459-.696-.918-1.13-1.034l-.203.229a18.85 18.85 0 01-3.63 3.24c.375-1.114.572-2.461.785-3.918.331-2.258.699-4.778 1.829-7.096l-2.264-1.205c-.231.313-.512.701-.835 1.146-1.423 1.963-3.646 5.03-5.871 7.602v.002l-.203.229c-2.176 2.496-4.295 4.472-5.631 4.472-.667 0-1.045-.459-.347-1.634l6.444-11.158h-3.02l-5.37 9.265c-2.293 2.064-4.062 3.212-4.644 2.953-.7-.291-.101-1.276.291-1.92l.087-.144 5.893-10.152h-3.02l-4.734 8.092-.199.226c-1.364 1.463-3.047 2.18-4.558 2.21l2.845-4.849c1.828-3.127.15-6.08-2.699-6.08-2.323 0-4.123.918-5.864 3.903l-1.482 2.55-1.237 2.09-.155.178c-2.176 2.496-4.964 4.473-7.083 4.473-1.858 0-2.96-1.146-1.567-3.555l.29-.518c1.944.804 5.604.43 7.867-3.443l.438-.746c1.623-2.754.058-4.819-2.41-4.819-2.44 0-4.387 1.265-5.663 3.444l-2.926 4.965-.175.197c-2.499 2.84-4.645 4.673-7.028 5.678l6.764-11.416h-1.772c0-1.234-1.277-2.868-3.164-2.868-1.625 0-3.889 1.263-5.167 3.442l-2.896 4.937-.008-.004-.203.23c-2.176 2.495-4.298 4.474-5.634 4.474-.667 0-1.042-.46-.346-1.635l3.018-5.22c1.045-1.807.551-2.87-.437-4.046l-1.683-2.01c-.435-.545-.435-1.146.175-1.72l-1.568-1.694zm-9.87 8.098c1.027-1.742.56-2.948-.424-3.038v.001c-.764-.07-1.84.536-2.768 2.092l-1.453 2.437-2.292 3.928c-1.8 3.097 1.656 3.556 3.078 1.146l.028-.056a1.949 1.949 0 01-.29-1.004c0-.975.784-1.779 1.77-1.779h.147l2.204-3.727zm49.734-3.038c.984.09 1.453 1.296.426 3.038l-2.206 3.727h-.147c-.986 0-1.768.804-1.768 1.779 0 .371.116.716.289 1.004l-.03.056c-1.421 2.41-4.875 1.951-3.075-1.146l2.292-3.928 1.451-2.437c.927-1.556 2.003-2.162 2.768-2.092v-.001zm-11.215 3.007c1.012-1.743.483-2.659-.485-2.602v.001c-.752.044-1.77.678-2.532 1.97l-1.948 3.355c1.133.402 3.079.46 4.53-1.978l.435-.746zm-52.888-2.401c1.023-.006 1.678.884.845 2.4l-2.292 3.96c-1.83 2.897-3.66 4.3-4.938 4.3-.667 0-1.045-.459-.349-1.634l4.212-7.256c.71-1.217 1.727-1.765 2.522-1.77zm39.768 2.4c.833-1.516.178-2.406-.845-2.4-.795.005-1.812.553-2.522 1.77l-4.21 7.256c-.694 1.175-.318 1.634.349 1.634 1.276 0 3.108-1.403 4.936-4.3l2.292-3.96zM216.75 79.443l-.001.001c-2.29.888-3.017 1.776-3.017 2.55 0 .803 1.016.974 1.654-.144l1.363-2.406h.001v-.001zm38.924.001l.001-.001v.001h-.001zm0 0l-1.361 2.406c-.64 1.118-1.656.947-1.656.144 0-.774.726-1.662 3.017-2.55zM101.025 67.831h28.922v1.95h-28.922v-1.95zm255.952 0h-28.922v1.95h28.922v-1.95z" fill="#766458"/><path fill-rule="evenodd" clip-rule="evenodd" d="M194.824 37.364V45.1h-20.816V.353h20.816v7.67h-13.2v10.804h10.535v7.67h-10.535v10.866l13.2.001zM216.17 45.1v-7.736l-10.597-.001V.353h-7.616V45.1h18.213zm106.53 0v-7.736h-13.201V26.497h10.535v-7.67h-10.535V8.024H322.7V.353h-20.816V45.1H322.7zM297.459.354h-7.551l-6.793 21.605L276.324.354h-7.552v44.747h7.617v-21.99l2.982 11.378h7.425l3.047-11.378v21.99h7.616V.354zm-39.46 7.67h-5.523v29.34H258l-.001-29.34zm7.68-2.939c0-2.622-2.158-4.731-4.698-4.731l-11.424.001c-2.6 0-4.696 2.109-4.696 4.73V40.37c0 2.557 2.096 4.73 4.696 4.73h11.424c2.54 0 4.698-2.173 4.698-4.73V5.085zm-32.708 23.521l7.678-1.79v13.552c0 2.557-2.157 4.73-4.696 4.73h-11.425c-2.6 0-4.695-2.173-4.695-4.73V5.084c0-2.622 2.095-4.73 4.695-4.73h11.423c2.54 0 4.697 2.108 4.697 4.73v9.077l-7.678 1.79V8.023h-5.522v29.34h5.522l.001-8.757zM170.241.354h-7.677l-.57 37.01h-.762L156.344.354h-7.552l-4.76 37.01h-.824l-.635-37.01h-7.616l1.142 44.746h14.533l1.967-18.474 1.968 18.474h14.47L170.241.354z" fill="#81B3D3"/><path fill-rule="evenodd" clip-rule="evenodd" d="M9.673 190.115c.077.078.116.155.116.233.078 0 .155.038.232.116 2.09 2.322 4.452 4.49 7.084 6.503 2.632 1.935 5.652 2.98 9.058 3.135.078 0 .155.04.232.117h.349c.077 0 .155.038.232.116h1.277c.388-.078.736-.155 1.046-.233a9.69 9.69 0 003.484-1.393c1.16-.697 2.051-1.549 2.67-2.555l.233-.465.232-.464c.155-.542.271-1.045.349-1.51.077-.464.116-.89.116-1.277 0-2.09-.93-3.832-2.787-5.226a19.949 19.949 0 00-5.807-3.368 16.789 16.789 0 00-2.439-.696 31.625 31.625 0 00-2.206-.581h-.232c-.078-.077-.155-.116-.232-.116a38.021 38.021 0 01-10.684-4.413c-3.33-2.09-5.613-5.071-6.852-8.942a99.925 99.925 0 01-.697-2.439 27.884 27.884 0 01-.348-2.67 3.415 3.415 0 01-.116-.814v-2.787c.077-.619.193-1.238.348-1.858.24-1.581.63-3.137 1.161-4.645.542-1.548 1.239-2.942 2.09-4.18 2.478-4.104 5.652-7.046 9.523-8.826 3.949-1.781 8.052-2.671 12.31-2.671 1.007 0 2.013.077 3.02.232 1.087.078 2.172.194 3.251.348a39.748 39.748 0 018.245 2.323c2.787 1.084 5.342 2.361 7.665 3.832l-6.387 14.284a44.7 44.7 0 00-6.62-4.064c-2.322-1.162-4.838-1.742-7.548-1.742h-.93c-1.78.232-3.444 1.045-4.993 2.438-1.548 1.316-2.322 2.749-2.322 4.297v.697c.077.232.193.464.348.697.155.542.426 1.045.813 1.51.387.464.813.89 1.277 1.277.852.697 2.09 1.355 3.717 1.974 1.625.542 3.329 1.084 5.11 1.626 1.47.387 2.902.774 4.296 1.161 1.394.31 2.555.62 3.484.93 4.335 1.548 7.587 4.141 9.755 7.78 2.167 3.561 3.29 7.355 3.367 11.38v.581c0 .465-.038.93-.116 1.394v1.277c-.464 4.026-1.78 7.858-3.948 11.497-2.09 3.639-4.916 6.426-8.477 8.362a37.095 37.095 0 01-4.065 1.625 82.275 82.275 0 01-4.18 1.046c-1.15.231-2.314.386-3.484.464a25.465 25.465 0 01-3.368.232h-1.278c-4.645-.154-9.212-1.161-13.703-3.02-4.49-1.935-8.477-4.49-11.96-7.664l9.289-14.865zm215.894-46.246c-6.348 3.484-11.303 8.517-14.864 15.097l-.001-.001a36.878 36.878 0 00-2.555 5.922 43.786 43.786 0 00-1.625 6.039 23.473 23.473 0 00-.465 3.135 39.604 39.604 0 00-.116 3.02c0 6.813 1.858 13.394 5.574 19.742 3.716 6.271 8.826 11.11 15.329 14.516a37.969 37.969 0 007.432 2.903 47.002 47.002 0 007.897 1.394h1.51c.539.077 1.082.116 1.626.116 7.586 0 14.826-2.052 21.716-6.155 6.89-4.18 11.961-10.025 15.212-17.535a36.016 36.016 0 001.51-4.645c.458-1.594.769-3.226.929-4.877.155-.775.233-1.549.233-2.323.077-.852.116-1.665.116-2.439 0-6.424-1.51-12.58-4.529-18.464-3.019-5.961-7.277-10.722-12.774-14.284a39.425 39.425 0 00-8.129-3.948 41.113 41.113 0 00-8.478-2.09c-.929-.078-1.896-.155-2.903-.233a33.727 33.727 0 00-2.787-.116c-6.89 0-13.51 1.742-19.858 5.226zm73.145 70.081v-73.974h19.51l27.871 37.974a37.208 37.208 0 011.974 3.484 53.437 53.437 0 011.974 3.6l1.394 3.02c.464 1.006.929 1.973 1.393 2.902a23.298 23.298 0 00-.348-2.438c-.077-.774-.155-1.587-.232-2.439a91.3 91.3 0 01-.349-4.761c-.08-1.663-.119-3.329-.116-4.994v-36.348h19.393v73.974h-19.393l-28.103-38.206c-.774-.929-1.51-2.013-2.206-3.251a65.905 65.905 0 01-1.974-4.065c-.45-.975-.914-1.943-1.394-2.903-.359-.94-.747-1.87-1.161-2.787.387 2.4.697 4.839.929 7.316.232 2.477.342 4.955.348 7.432v36.464h-19.51zm107.46-73.974L380.74 213.95h19.974l3.832-13.355h28.568l3.716 13.355h20.206l-25.664-73.974h-25.2zm2.672 46.335l7.548-24.503a49.83 49.83 0 00.813-3.252c.316-1.111.587-2.234.812-3.367.077-.155.117-.271.117-.349 0-.154.038-.309.116-.464.077-.465.155-.891.232-1.278.155-.464.271-.89.348-1.277.078.387.155.813.233 1.277.077.388.193.813.348 1.278.242 1.283.513 2.561.813 3.832.376 1.204.763 2.404 1.161 3.6l7.549 24.503h-20.09zm-145.302-.752c.232-.774.426-1.587.58-2.439.233-.851.388-1.703.465-2.555.078-.541.116-1.083.116-1.625.078-.542.116-1.046.116-1.51a8.46 8.46 0 00-.116-1.394v-1.393c-.387-3.33-1.393-6.542-3.02-9.639-1.625-3.097-3.87-5.497-6.735-7.2a30.79 30.79 0 00-2.322-1.045c-.774-.31-1.549-.58-2.323-.813a23.944 23.944 0 00-2.322-.348 11.847 11.847 0 00-2.323-.233c-3.948 0-7.587 1.24-10.916 3.717-3.329 2.477-5.652 5.767-6.968 9.87l-.232.465v.464c-.239.723-.433 1.46-.58 2.207-.155.697-.31 1.432-.465 2.206l-.232 1.626v2.439c0 .232.038.503.116.813.232 4.103 1.47 8.013 3.716 11.729 2.322 3.638 5.497 6.038 9.522 7.2l1.394.464c.464.078.968.155 1.51.232l1.393.233h1.394c4.103 0 7.78-1.2 11.032-3.6 3.329-2.478 5.729-5.768 7.2-9.871zm-94.001 26.533a33.616 33.616 0 0011.845-5.11h.001c4.49-3.252 7.935-7.432 10.335-12.542 2.4-5.11 3.716-10.413 3.949-15.91v-2.903c0-.465-.039-.929-.117-1.393-.309-5.266-1.664-10.375-4.064-15.33-2.4-4.954-5.768-8.941-10.103-11.96a30.337 30.337 0 00-11.264-5.11 72.528 72.528 0 00-12.31-1.742 53.741 53.741 0 00-3.6-.116h-25.084v73.974h23.806c1.24 0 2.479-.039 3.716-.116a80.464 80.464 0 0012.89-1.742zm-20.555-14.749c.232 0 .465.039.697.116h.813c.31 0 .58.04.813.117h3.135c.852-.078 1.665-.155 2.439-.233a30.585 30.585 0 005.922-1.045c1.936-.542 3.678-1.355 5.226-2.439 2.478-1.78 4.297-4.18 5.458-7.2a25.73 25.73 0 001.858-9.638v-.93c0-.309-.038-.619-.116-.928a23.142 23.142 0 00-2.09-8.478c-1.239-2.787-2.942-4.993-5.11-6.62a13.335 13.335 0 00-5.458-2.67 30.665 30.665 0 00-6.039-.813h-7.548v40.761zm-79.91-57.368v73.974h45.406v-16.606H88.934v-12.542h24.039v-15.794H88.934v-12.89h25.548v-16.142H69.076zm282.347 196.383c-.113.291-.17.583-.17.877 0 .718.247 1.269.74 1.649.495.384 1.07.574 1.72.574a2.15 2.15 0 01-.304 1.01 2.92 2.92 0 01-.676.76 4.517 4.517 0 01-.857.539 9.123 9.123 0 01-.828.352l1.35 1.99.098-.047.03-.014.056-.026c.062-.029.124-.056.186-.083.206-.088.446-.208.726-.352.308-.163.606-.343.893-.54.302-.203.585-.434.843-.691a5.984 5.984 0 001.296-1.92 6.004 6.004 0 00.455-2.358c0-.451-.066-.877-.202-1.281a3.133 3.133 0 00-.572-1.044 2.926 2.926 0 00-1.061-.727 3.432 3.432 0 00-1.298-.252c-.405 0-.77.074-1.095.22-.31.135-.591.329-.827.572a2.385 2.385 0 00-.503.792zm7.667.877c0-.293.057-.586.167-.877.113-.293.282-.556.506-.792.227-.235.5-.428.825-.572.327-.145.69-.22 1.096-.22.45 0 .883.084 1.297.252.417.17.77.41 1.061.727.25.292.44.64.574 1.044.134.405.202.831.202 1.281a5.994 5.994 0 01-.455 2.358 6.017 6.017 0 01-1.298 1.92 5.715 5.715 0 01-.845.691 8.181 8.181 0 01-.893.54c-.28.145-.52.264-.725.352-.124.054-.248.111-.37.17l-1.348-1.99c.247-.089.52-.207.825-.352.304-.146.59-.326.86-.539.268-.214.494-.467.673-.76.181-.292.282-.628.304-1.01a2.72 2.72 0 01-1.719-.574c-.49-.38-.737-.931-.737-1.648v-.001zM94.36 279.394c.113-.291.17-.584.17-.875h.001c0-.719-.248-1.268-.74-1.649a2.731 2.731 0 00-1.718-.572c.023-.383.123-.721.303-1.013.18-.292.403-.545.673-.758.27-.214.557-.393.86-.539.27-.13.545-.248.825-.352l-1.348-1.988c-.044.022-.167.08-.37.167-.203.089-.445.208-.725.352a8.676 8.676 0 00-.893.54 5.563 5.563 0 00-.844.69 6.004 6.004 0 00-1.297 1.92 6.028 6.028 0 00-.455 2.36c-.002.435.066.867.202 1.28.122.382.317.737.573 1.045.295.317.657.565 1.06.725.412.168.852.253 1.297.252a2.641 2.641 0 001.923-.792c.219-.228.39-.498.503-.793zm-7.666-.875a2.454 2.454 0 01-.673 1.67 2.606 2.606 0 01-.826.571c-.326.146-.692.22-1.096.22a3.417 3.417 0 01-1.298-.252 2.942 2.942 0 01-1.06-.726 3.094 3.094 0 01-.573-1.045 4.004 4.004 0 01-.202-1.28c0-.852.15-1.64.455-2.36a5.984 5.984 0 011.297-1.92c.247-.248.527-.477.843-.691.314-.212.612-.393.893-.54.28-.144.52-.262.724-.35l.057-.026c.169-.076.274-.123.315-.144l1.347 1.988c-.248.09-.522.208-.826.353-.303.147-.59.326-.857.538a2.956 2.956 0 00-.676.759c-.179.292-.28.63-.302 1.012.65 0 1.224.19 1.718.573.493.382.74.93.74 1.65zm249.165 56.874h-3.815l11.881-20.636h3.776l-11.842 20.636zm-3.996 1.488c-1.236 0-2.181.98-2.181 2.218s.946 2.18 2.181 2.18c1.232 0 2.217-.944 2.217-2.18a2.206 2.206 0 00-2.217-2.218zm-25.262-7.415l-1.09 1.888c.835 2.471 4.139 1.091 5.269-.871l1.815-3.124c1.345-2.29-1.634-3.961-5.994 2.107zm24.002 4.868c-.218-.58-.872-1.163-1.417-1.307l-.255.292a23.56 23.56 0 01-4.542 4.104c.47-1.411.717-3.119.983-4.965.412-2.859.872-6.049 2.285-8.985l-2.835-1.527c-.278.382-.615.853-1.001 1.392l-.001.001c-1.777 2.483-4.584 6.404-7.39 9.688.006.01.016.018.021.025a.44.44 0 01-.045-.025l-.253.292c-2.727 3.16-5.377 5.666-7.05 5.666-.834 0-1.634-.836-1.634-2.543v-1.562c2.652.327 5.45-1.418 7.23-4.504l1.016-1.743c3.522-6.03-2.217-8.03-6.068-4.504l5.375-9.337h-3.779l-10.775 18.695a2.97 2.97 0 00-.689-.457l-.256.292c-2.723 3.16-6.211 5.666-8.863 5.666-2.325 0-3.705-1.453-1.961-4.504l3.884-6.757c2.18-3.742 6.032-3.124 3.778.8l-.544.944h3.09l.545-.944c2.034-3.488.071-6.104-3.015-6.104-3.051 0-5.487 1.6-7.085 4.36l-3.718 6.38a3.057 3.057 0 01-.059-.036c-.06-.036-.119-.072-.174-.096l-.255.292c-2.724 3.16-5.375 5.666-7.047 5.666-.836 0-1.306-.58-.436-2.07l8.066-14.133h-3.78l-6.719 11.734c-2.873 2.615-5.085 4.068-5.814 3.742-.876-.37-.127-1.616.364-2.432l.109-.183 7.374-12.861h-3.778l-7.338 12.695c-.506.461-1.309.891-2.033 1.28-.444.238-.858.46-1.157.664.471-1.412.717-3.12.984-4.967v-.001c.412-2.858.873-6.047 2.285-8.982l-2.832-1.527c-1.563 2.143-10.283 13.698-13.698 17.693.325.472.872.945 1.416 1.308 2.143-2.47 9.338-11.734 10.682-13.514-.501 1.318-.743 2.99-.98 4.628-.469 3.237-.919 6.344-3.308 6.344-1.27 0-1.78-1.382-1.78-1.382l-2.361 1.236s.69 3.05 4.14 3.05c.334 0 .636-.03.964-.063l.092-.009a.07.07 0 00.02-.003.142.142 0 00.018-.008.1.1 0 00.015-.007.148.148 0 01.032-.014l.005-.002.003-.001.013-.001c1.92-.254 4.578-1.138 6.36-2.37-.012 1.537.916 2.478 2.5 2.478 2.068 0 4.395-1.889 6.21-3.632-.361 2.035.835 3.632 3.235 3.632 2.346 0 4.959-1.886 7.437-4.363.034 2.51 1.968 4.363 5.126 4.363 3.066 0 6.114-1.713 8.741-4.016l-2.105 3.654h3.816l4.323-7.52v3.014c0 3.232.617 4.868 3.67 4.868 3.123 0 6.721-3.341 9.845-6.975l-.007-.01c-.006-.007-.012-.015-.013-.024.014.012.031.023.047.034 1.713-1.974 3.265-4.065 4.503-5.734.311-.419.603-.812.872-1.17-.5 1.318-.741 2.988-.978 4.626-.469 3.238-.919 6.347-3.309 6.347-1.27 0-1.78-1.382-1.78-1.382l-2.362 1.236s.691 3.05 4.142 3.05c.328 0 .626-.029.952-.062l.104-.01a.108.108 0 00.047-.015c.019-.01.038-.02.058-.02 3.853-.512 7.668-3.562 10.501-6.87l.001.002zm-114.774-1.086h.183l2.76-4.722c2.288-3.925-1.344-5.705-3.997-1.2l-1.816 3.088-2.87 4.977c-2.253 3.924 2.071 4.504 3.85 1.454l.037-.073a2.465 2.465 0 01-.363-1.269c0-1.238.981-2.255 2.216-2.255zm-25.247 14.131c-.8 1.417-2.072 1.2-2.072.184 0-.98.909-2.106 3.815-3.234l-1.743 3.05zm-34.845-8.427c1.562 0 3.815-1.708 6.103-5.303l2.941-5.16c1.854-3.416-2.178-4.323-4.213-.801l-5.267 9.193c-.871 1.491-.399 2.071.436 2.071zm-5.951-20.053c1.126-1.927 2.362-2.762 3.415-2.762 1.418 0 2.071.944 2.071 2.325 0 3.524-4.364 10.833-10.172 9.881h-.763l5.449-9.444zm92.523 14.386l.254-.292.001.001c.51.218 1.163.8 1.418 1.311-3.126 3.633-6.72 6.975-9.846 6.975-3.053 0-4.178-2.577-2.58-5.376l4.904-8.538c1.636-2.798-.944-3.741-6.721 3.489l-5.776 10.063h-3.815l2.54-4.394c-1.686.93-3.554 1.45-4.934 1.45h-.835c-4.238 5.358-11.266 4.155-10.746-1.122-3.252 3.219-6.366 5.178-9.525 6.172l-2.906 4.978c-2.722 4.65-8.282 3.886-8.282.253 0-2.832 3.197-4.941 8.32-6.465l2.071-3.56c-1.709 1.524-3.778 3.05-5.595 3.05-1.882 0-2.841-1.332-2.388-3.41-2.174 1.99-4.407 3.41-6.44 3.41-3.051 0-4.177-2.576-2.579-5.376l4.904-8.534c1.635-2.799-.945-3.742-6.722 3.488l-5.776 10.063h-3.814l1.392-2.411c-1.942 1.649-3.91 2.773-5.72 2.773-1.924 0-3.088-1.015-3.268-2.469-1.817 1.489-3.706 2.469-5.232 2.469-2.675 0-3.871-1.981-3.048-4.355l-.224.213c-2.49 2.369-4.353 4.142-8.457 4.142-5.34 0-6.901-5.084-4.25-9.662l1.125-1.964c-3.05-1.598-4.758-4.505-4.758-7.518 0-2.546 1.197-5.122 3.887-7.05l1.235 2.218c-1.634 1.27-2.434 3.014-2.434 4.757 0 2.108 1.164 4.215 3.38 5.378l5.886-10.137c1.706-2.978 4.177-4.432 6.248-4.432 2.796 0 5.013 2.215 5.013 5.63 0 1.49-.473 3.233-1.526 5.086-2.979 5.195-7.557 7.267-11.59 7.267-.761 0-1.452-.077-2.142-.184l-1.055 1.852c-2.25 3.852-.689 6.431 1.89 6.431 3.675 0 5.759-2.417 8.413-5.496l.147-.171.254-.292c.271.073.568.255.828.488l3.903-6.736c1.596-2.763 4.432-4.36 6.465-4.36 2.471 0 4.106 2.216 3.961 3.814h2.143l-6.104 10.68c-.871 1.492-.399 2.072.436 2.072 1.673 0 4.325-2.507 7.048-5.667l.254-.292c.125.058.245.125.359.202l6.038-10.445h3.78l-1.417 2.469c1.888-1.962 3.596-2.834 5.231-2.834 2.107 0 3.669 2.072 2.034 4.942l-5.449 9.553c-.871 1.492-.399 2.072.436 2.072 1.672 0 4.323-2.507 7.048-5.667l.254-.292c.115.054.226.116.331.187l6.028-10.43h3.778l-7.375 12.86-.047.08-.064.106c-.49.818-1.235 2.061-.361 2.43.726.326 2.979-1.163 5.886-3.85l6.683-11.626h3.779l-10.355 17.73c2.978-1.275 5.63-3.6 8.755-7.195l.254-.291c.119.054.233.118.342.19l1.62-2.77 1.852-3.233c2.181-3.778 4.432-4.94 7.339-4.94 3.562 0 5.668 3.739 3.38 7.701l-3.56 6.14c1.889-.037 3.997-.947 5.703-2.799l.255-.292c.17.08.332.177.482.29l6.088-10.533h3.779l-1.417 2.469c1.89-1.962 3.595-2.833 5.231-2.833 2.105 0 3.671 2.071 2.035 4.941l-5.45 9.553c-.871 1.492-.4 2.072.436 2.072 1.672 0 4.325-2.507 7.047-5.667zm118.885-35.864c-2.29 3.741-4.615 5.521-6.212 5.521-.835 0-1.307-.58-.437-2.07l5.267-9.193c2.035-3.524 6.067-2.615 4.214.8h.035l-2.867 4.942zm-42.291 5.521c1.561 0 3.814-1.708 6.104-5.302l2.941-5.161c1.852-3.415-2.18-4.324-4.214-.8l-5.268 9.193c-.87 1.49-.399 2.07.437 2.07zm-33.813 8.428c-.797 1.417-2.07 1.2-2.07.184 0-.981.872-2.107 3.779-3.234l-1.709 3.05zm11.445-31.241c-1.055 0-2.29.834-3.417 2.76l-5.448 9.445h.763c9.627 2.23 14.096-12.205 8.102-12.205zm74.247 16.857l-.255.29c-2.72 3.16-5.374 5.667-7.047 5.667-.835 0-1.307-.58-.437-2.071l12.789-22.124h-3.779l-5.557 9.591c-.654-1.054-1.89-1.962-3.453-1.962-2.035 0-4.867 1.599-6.466 4.359l-3.698 6.38-.039-.023-.025-.015c-.058-.035-.116-.07-.17-.094l-.255.292c-2.723 3.16-5 5.666-6.672 5.666-.837 0-1.307-.58-.438-2.07l5.45-9.555c1.637-2.87.072-4.942-2.034-4.942-1.636 0-3.34.871-5.232 2.835l1.417-2.47h-3.779l-6.037 10.447a2.657 2.657 0 00-.36-.203l-.256.292c-2.723 3.16-5.374 5.666-7.046 5.666-.835 0-1.306-.58-.436-2.07l6.103-10.682h-2.144c.146-1.598-1.488-3.815-3.96-3.815-2.035 0-4.87 1.599-6.468 4.358l-3.652 6.306-.206.234c-2.722 3.159-5.75 5.665-7.42 5.665-.837 0-1.307-.58-.437-2.07l3.778-6.611c1.307-2.29.689-3.633-.545-5.123l-2.106-2.544c-.545-.69-.545-1.453.218-2.18l-1.962-2.143c-2.144 1.927-2.325 4.069-.982 5.813l.329.436-.134.189v.001c-1.658 2.342-3.856 5.447-6.263 8.275.041.059.086.117.134.175.04.048.081.097.124.145-3.113 3.58-5.759 5.895-8.73 7.162l4.795-8.21h-3.778l-.399.655c-1.998 3.524-4.288 6.031-7.23 6.031-2.58 0-3.05-2.579-.8-6.43l1.055-1.852a13.6 13.6 0 002.142.181c13.443 0 19.946-17.982 8.104-17.982-2.072 0-4.544 1.454-6.25 4.432l-5.885 10.135c-2.216-1.161-3.378-3.268-3.378-5.375 0-1.743.8-3.488 2.432-4.758l-1.233-2.217c-2.69 1.926-3.888 4.504-3.888 7.047 0 3.016 1.709 5.922 4.76 7.52l-1.127 1.963c-2.652 4.578-2.18 9.663 3.162 9.663 1.598 0 2.941-.472 4.105-1.2l-.983 1.71c-5.12 1.56-8.282 3.631-8.282 6.465 0 3.632 5.56 4.396 8.282-.254l2.907-4.977c3.925-1.235 7.776-3.923 11.918-8.719a2.168 2.168 0 00-.236-.355c1.678-1.971 3.102-3.874 5.95-7.746l.507.619c.473.616.654 1.38.218 2.144l-3.997 6.937c-1.599 2.795-.472 5.374 2.58 5.374 1.899 0 4.348-1.239 6.385-3.024-.044 1.738 1.144 3.024 3.299 3.024 1.525 0 3.415-.98 5.23-2.47.183 1.454 1.347 2.47 3.27 2.47 1.81 0 3.777-1.125 5.72-2.774l-1.392 2.412h3.813l5.777-10.065c5.777-7.229 8.357-6.284 6.72-3.487l-4.903 8.538c-1.597 2.798-.473 5.376 2.578 5.376 2.01 0 3.836-1.384 5.982-3.333-.2 1.893 1.004 3.333 3.282 3.333 1.525 0 3.414-.98 5.232-2.47.182 1.455 1.345 2.47 3.269 2.47 3.125 0 6.72-3.341 9.845-6.976-.256-.504-.909-1.085-1.42-1.302zm-108.501-4.506c2.254-3.924-1.599-4.541-3.779-.799l-2.434 4.25c1.416.508 3.851.582 5.668-2.507l.545-.944zm-6.83 12.788c4.287 0 8.54-3.341 11.662-6.975-.253-.51-.908-1.09-1.417-1.308l-.253.292c-2.726 3.16-6.213 5.666-8.867 5.666-2.325 0-3.705-1.453-1.962-4.505l.363-.653c2.435 1.016 7.012.545 9.846-4.36l.545-.944c2.035-3.489.073-6.104-3.016-6.104-3.05 0-5.484 1.598-7.083 4.359l-3.679 6.313c-.038-.02-.076-.048-.112-.064l-.255.292c-2.724 3.16-5.375 5.666-7.047 5.666-.836 0-1.306-.58-.437-2.071l5.45-9.555c1.635-2.87.072-4.942-2.036-4.942-1.635 0-3.379.909-5.266 2.871l6.03-10.5h-3.778l-10.656 18.49a2.487 2.487 0 00-.432-.252l-.255.291c-2.725 3.161-5.376 5.667-7.048 5.667-.835 0-1.307-.58-.437-2.07l8.102-14.134h3.09l1.09-1.817h-3.125l3.56-6.175h-3.778l-3.56 6.175h-3.415l-1.09 1.817h3.45l-7.593 13.153c-1.598 2.799-.472 5.377 2.579 5.377 1.878 0 3.926-1.213 5.94-2.964l-1.499 2.6h3.815l5.74-9.992c5.813-7.302 8.393-6.357 6.758-3.56l-4.905 8.538c-1.598 2.798-.472 5.376 2.58 5.376 2.296 0 4.846-1.805 7.276-4.205.11 2.431 2.033 4.207 5.125 4.207zm-123.695-12.789c2.254-3.924-1.596-4.541-3.776-.799l-2.435 4.249c1.416.509 3.852.582 5.667-2.506l.544-.944zm19.343 8.392l5.268-9.191c2.034-3.526 6.067-2.617 4.213.799l-2.942 5.159c-2.288 3.595-4.543 5.304-6.104 5.304-.834 0-1.307-.581-.435-2.07v-.001zm57.76-8.392c2.254-3.924-1.596-4.541-3.776-.799l-2.435 4.249c1.416.508 3.851.582 5.666-2.506l.545-.944zm-61.584 8.727c-.627 2.24.57 4.06 3.134 4.06 1.525 0 3.415-.98 5.23-2.469.183 1.453 1.346 2.47 3.27 2.47 2.013 0 4.218-1.39 6.369-3.346-.418 2.042.539 3.346 2.4 3.346 2.073 0 4.398-1.89 6.213-3.634-.364 2.036.837 3.634 3.234 3.634 3.125 0 6.72-3.342 9.845-6.976a.717.717 0 00-.056-.088c-.015-.021-.031-.042-.044-.063 1.64-1.908 3.128-3.907 4.33-5.522v-.001h.001v-.001c.328-.441.635-.852.917-1.226-.501 1.318-.743 2.989-.98 4.628-.469 3.236-.919 6.344-3.308 6.344-1.27 0-1.78-1.382-1.78-1.382l-2.363 1.235s.69 3.052 4.142 3.052c.324 0 .618-.029.937-.061l.117-.012c.019 0 .037-.009.055-.018.018-.008.035-.017.053-.017 2.776-.367 5.529-2.056 7.913-4.209.058 2.486 1.986 4.317 5.125 4.317 4.287 0 8.538-3.341 11.662-6.976-.254-.51-.908-1.09-1.416-1.308l-.254.292c-2.725 3.16-6.213 5.667-8.863 5.667-2.326 0-3.707-1.454-1.963-4.505l.364-.654c2.432 1.016 7.01.545 9.845-4.36l.545-.943c2.034-3.489.072-6.104-3.015-6.104-3.05 0-5.487 1.598-7.083 4.358l-3.67 6.294c-.016-.005-.032-.014-.048-.022-.019-.009-.037-.019-.056-.024l-.254.291a23.603 23.603 0 01-4.542 4.106c.471-1.412.717-3.12.984-4.967.413-2.858.874-6.048 2.286-8.984l-2.833-1.526c-.284.39-.629.872-1.025 1.424-1.779 2.485-4.573 6.387-7.368 9.656l.035.046.024.028.002.003.001.001.048.06-.135.153c-2.724 3.16-5.376 5.667-7.048 5.667-.835 0-1.307-.58-.436-2.07l8.065-14.135h-3.779l-6.72 11.734c-2.87 2.616-5.085 4.069-5.814 3.742-.876-.37-.125-1.618.366-2.435l.001-.002.009-.015.059-.098.039-.065 7.373-12.86h-3.778l-6.013 10.405-.034-.021c-.086-.053-.172-.106-.253-.14l-.254.29c-2.725 3.16-5.376 5.667-7.048 5.667-.835 0-1.307-.58-.436-2.07l6.103-10.682h-2.144c.146-1.598-1.488-3.816-3.96-3.816-2.034 0-4.868 1.6-6.466 4.36l-3.83 6.612a2.782 2.782 0 00-.576-.363l-.254.29c-2.724 3.16-5.858 5.667-8.51 5.667-2.324 0-3.706-1.453-1.963-4.504l3.887-6.756c2.18-3.742 6.031-3.125 3.777.798l-.545.945h3.09l.544-.945c2.034-3.487.073-6.104-3.014-6.104-3.052 0-5.134 1.6-6.73 4.36l-3.756 6.443a2.404 2.404 0 00-.347-.194l-.254.29c-2.724 3.16-5.947 5.667-8.598 5.667-2.326 0-3.707-1.453-1.963-4.504l.363-.654c2.434 1.018 7.012.545 9.846-4.358l.545-.946c2.034-3.486.072-6.103-3.016-6.103-3.05 0-5.486 1.598-7.083 4.36l-3.96 6.792c-2.363 4.033-.327 7.738 4.14 7.738 3.329 0 6.013-2.015 8.788-4.617-.098 2.637 1.858 4.617 5.121 4.617 3.088.006 5.8-1.728 8.441-4.054zm-33.821-19.191l-3.051 5.231v.001c3.851-.073 5.996-.909 7.446-3.633 1.89-3.561-1.635-6.356-4.395-1.599zm-7.119 22.451c-2.253 0-4.033-.508-5.45-1.306.654-.764 1.307-1.709 1.89-2.689l6.356-11.008 1.017.108c8.866 1.855 5.341 14.895-3.813 14.895zm9.337-15.475c7.628-2.581 8.209-12.135.689-12.135-2.071 0-4.541 1.453-6.248 4.432L99.94 298.872c-.42.755-.906 1.472-1.452 2.141-2.616-3.595-1.853-8.971 1.816-11.334l-1.527-1.926c-7.92 5.05-5.594 19.617 7.63 19.617 11.3.002 16.53-13.546 9.265-18.379z" fill="#fff"/></svg>